  0
SECTION
  2
HEADER
  9
$ACADVER
  1
AC1014
  9
$HANDSEED
  5
FFFF
  9
$MEASUREMENT
 70
     1
  0
ENDSEC
  0
SECTION
  2
TABLES
  0
TABLE
  2
VPORT
  5
8
330
0
100
AcDbSymbolTable
 70
     4
  0
VPORT
  5
2E
330
8
100
AcDbSymbolTableRecord
100
AcDbViewportTableRecord
  2
*ACTIVE
 70
     0
 10
0.0
 20
0.0
 11
1.0
 21
1.0
 12
210.0
 22
148.5
 13
0.0
 23
0.0
 14
10.0
 24
10.0
 15
10.0
 25
10.0
 16
0.0
 26
0.0
 36
1.0
 17
0.0
 27
0.0
 37
0.0
 40
341.0
 41
1.24
 42
50.0
 43
0.0
 44
0.0
 50
0.0
 51
0.0
 71
     0
 72
   100
 73
     1
 74
     3
 75
     0
 76
     0
 77
     0
 78
     0
  0
ENDTAB
  0
TABLE
  2
LTYPE
  5
5
330
0
100
AcDbSymbolTable
 70
     1
  0
LTYPE
  5
14
330
5
100
AcDbSymbolTableRecord
100
AcDbLinetypeTableRecord
  2
BYBLOCK
 70
     0
  3

 72
    65
 73
     0
 40
0.0
  0
LTYPE
  5
15
330
5
100
AcDbSymbolTableRecord
100
AcDbLinetypeTableRecord
  2
BYLAYER
 70
     0
  3

 72
    65
 73
     0
 40
0.0
  0
LTYPE
  5
16
330
5
100
AcDbSymbolTableRecord
100
AcDbLinetypeTableRecord
  2
CONTINUOUS
 70
     0
  3
Solid line
 72
    65
 73
     0
 40
0.0
  0
ENDTAB
  0
TABLE
  2
LAYER
  5
2
100
AcDbSymbolTable
 70
2
  0
LAYER
  5
50
100
AcDbSymbolTableRecord
100
AcDbLayerTableRecord
  2
0
 70
0
  6
CONTINUOUS
  0
LAYER
  5
51
100
AcDbSymbolTableRecord
100
AcDbLayerTableRecord
  2
trace
 70
0
  6
CONTINUOUS
  0
ENDTAB
  0
TABLE
  2
STYLE
  5
3
330
0
100
AcDbSymbolTable
 70
     1
  0
STYLE
  5
11
330
3
100
AcDbSymbolTableRecord
100
AcDbTextStyleTableRecord
  2
STANDARD
 70
     0
 40
0.0
 41
1.0
 50
0.0
 71
     0
 42
2.5
  3
txt
  4

  0
ENDTAB
  0
TABLE
  2
VIEW
  5
6
330
0
100
AcDbSymbolTable
 70
     0
  0
ENDTAB
  0
TABLE
  2
UCS
  5
7
330
0
100
AcDbSymbolTable
 70
     0
  0
ENDTAB
  0
TABLE
  2
APPID
  5
9
330
0
100
AcDbSymbolTable
 70
     2
  0
APPID
  5
12
330
9
100
AcDbSymbolTableRecord
100
AcDbRegAppTableRecord
  2
ACAD
 70
     0
  0
ENDTAB
  0
TABLE
  2
DIMSTYLE
  5
A
330
0
100
AcDbSymbolTable
 70
     1
  0
DIMSTYLE
105
27
330
A
100
AcDbSymbolTableRecord
100
AcDbDimStyleTableRecord
  2
ISO-25
 70
     0
  3

  4

  5

  6

  7

 40
1.0
 41
2.5
 42
0.625
 43
3.75
 44
1.25
 45
0.0
 46
0.0
 47
0.0
 48
0.0
140
2.5
141
2.5
142
0.0
143
0.03937007874016
144
1.0
145
0.0
146
1.0
147
0.625
 71
     0
 72
     0
 73
     0
 74
     0
 75
     0
 76
     0
 77
     1
 78
     8
170
     0
171
     3
172
     1
173
     0
174
     0
175
     0
176
     0
177
     0
178
     0
270
     2
271
     2
272
     2
273
     2
274
     3
340
11
275
     0
280
     0
281
     0
282
     0
283
     0
284
     8
285
     0
286
     0
287
     3
288
     0
  0
ENDTAB
  0
TABLE
  2
BLOCK_RECORD
  5
1
330
0
100
AcDbSymbolTable
 70
     1
  0
BLOCK_RECORD
  5
1F
330
1
100
AcDbSymbolTableRecord
100
AcDbBlockTableRecord
  2
*MODEL_SPACE
  0
BLOCK_RECORD
  5
1B
330
1
100
AcDbSymbolTableRecord
100
AcDbBlockTableRecord
  2
*PAPER_SPACE
  0
ENDTAB
  0
ENDSEC
  0
SECTION
  2
BLOCKS
  0
BLOCK
  5
20
330
1F
100
AcDbEntity
  8
0
100
AcDbBlockBegin
  2
*MODEL_SPACE
 70
     0
 10
0.0
 20
0.0
 30
0.0
  3
*MODEL_SPACE
  1

  0
ENDBLK
  5
21
330
1F
100
AcDbEntity
  8
0
100
AcDbBlockEnd
  0
BLOCK
  5
1C
330
1B
100
AcDbEntity
 67
     1
  8
0
100
AcDbBlockBegin
  2
*PAPER_SPACE
  1

  0
ENDBLK
  5
1D
330
1B
100
AcDbEntity
 67
     1
  8
0
100
AcDbBlockEnd
  0
ENDSEC
  0
SECTION
  2
ENTITIES
  0
SPLINE
  5
100
100
AcDbEntity
  8
trace
 62
7
100
AcDbSpline
 70
8
 71
3
 72
8
 73
4
 74
0
 40
0
 40
0
 40
0
 40
0
 40
1
 40
1
 40
1
 40
1
 10
173.455264
 20
22.941328
 30
0.0
 10
158.326872
 20
24.940384
 30
0.0
 10
138.344968
 20
29.680872
 30
0.0
 10
126.373936
 20
34.110848
 30
0.0
  0
SPLINE
  5
101
100
AcDbEntity
  8
trace
 62
7
100
AcDbSpline
 70
8
 71
3
 72
8
 73
4
 74
0
 40
0
 40
0
 40
0
 40
0
 40
1
 40
1
 40
1
 40
1
 10
126.373936
 20
34.110848
 30
0.0
 10
111.258664
 20
39.704376
 30
0.0
 10
98.017752
 20
46.628272
 30
0.0
 10
81.487168
 20
57.582896
 30
0.0
  0
SPLINE
  5
102
100
AcDbEntity
  8
trace
 62
7
100
AcDbSpline
 70
8
 71
3
 72
8
 73
4
 74
0
 40
0
 40
0
 40
0
 40
0
 40
1
 40
1
 40
1
 40
1
 10
81.487168
 20
57.582896
 30
0.0
 10
73.896286
 20
62.613280
 30
0.0
 10
71.708494
 20
63.747312
 30
0.0
 10
71.186158
 20
62.922384
 30
0.0
  0
SPLINE
  5
103
100
AcDbEntity
  8
trace
 62
7
100
AcDbSpline
 70
8
 71
3
 72
8
 73
4
 74
0
 40
0
 40
0
 40
0
 40
0
 40
1
 40
1
 40
1
 40
1
 10
71.186158
 20
62.922384
 30
0.0
 10
70.655042
 20
62.083584
 30
0.0
 10
70.520682
 20
62.136384
 30
0.0
 10
70.511485
 20
63.187496
 30
0.0
  0
SPLINE
  5
104
100
AcDbEntity
  8
trace
 62
7
100
AcDbSpline
 70
8
 71
3
 72
8
 73
4
 74
0
 40
0
 40
0
 40
0
 40
0
 40
1
 40
1
 40
1
 40
1
 10
70.511485
 20
63.187496
 30
0.0
 10
70.495677
 20
64.994560
 30
0.0
 10
69.854558
 20
64.857608
 30
0.0
 10
65.584336
 20
62.135000
 30
0.0
  0
SPLINE
  5
105
100
AcDbEntity
  8
trace
 62
7
100
AcDbSpline
 70
8
 71
3
 72
8
 73
4
 74
0
 40
0
 40
0
 40
0
 40
0
 40
1
 40
1
 40
1
 40
1
 10
65.584336
 20
62.135000
 30
0.0
 10
63.544201
 20
60.834256
 30
0.0
 10
59.343750
 20
58.556128
 30
0.0
 10
56.250000
 20
57.072504
 30
0.0
  0
SPLINE
  5
106
100
AcDbEntity
  8
trace
 62
7
100
AcDbSpline
 70
8
 71
3
 72
8
 73
4
 74
0
 40
0
 40
0
 40
0
 40
0
 40
1
 40
1
 40
1
 40
1
 10
56.250000
 20
57.072504
 30
0.0
 10
50.695142
 20
54.408640
 30
0.0
 10
50.487054
 20
54.371808
 30
0.0
 10
39.562500
 20
54.118712
 30
0.0
  0
SPLINE
  5
107
100
AcDbEntity
  8
trace
 62
7
100
AcDbSpline
 70
8
 71
3
 72
8
 73
4
 74
0
 40
0
 40
0
 40
0
 40
0
 40
1
 40
1
 40
1
 40
1
 10
36.592426
 20
91.500000
 30
0.0
 10
47.838023
 20
91.500000
 30
0.0
 10
58.020198
 20
88.508734
 30
0.0
 10
65.433306
 20
83.027278
 30
0.0
  0
SPLINE
  5
108
100
AcDbEntity
  8
trace
 62
7
100
AcDbSpline
 70
8
 71
3
 72
8
 73
4
 74
0
 40
0
 40
0
 40
0
 40
0
 40
1
 40
1
 40
1
 40
1
 10
65.433306
 20
83.027278
 30
0.0
 10
69.170358
 20
80.263999
 30
0.0
 10
70.484060
 20
79.992210
 30
0.0
 10
70.587001
 20
81.961038
 30
0.0
  0
SPLINE
  5
109
100
AcDbEntity
  8
trace
 62
7
100
AcDbSpline
 70
8
 71
3
 72
8
 73
4
 74
0
 40
0
 40
0
 40
0
 40
0
 40
1
 40
1
 40
1
 40
1
 10
70.587001
 20
81.961038
 30
0.0
 10
70.653369
 20
83.230404
 30
0.0
 10
70.755340
 20
83.313750
 30
0.0
 10
71.016994
 20
82.312500
 30
0.0
  0
SPLINE
  5
10a
100
AcDbEntity
  8
trace
 62
7
100
AcDbSpline
 70
8
 71
3
 72
8
 73
4
 74
0
 40
0
 40
0
 40
0
 40
0
 40
1
 40
1
 40
1
 40
1
 10
71.016994
 20
82.312500
 30
0.0
 10
71.205640
 20
81.590625
 30
0.0
 10
71.482091
 20
81.000000
 30
0.0
 10
71.631330
 20
81.000000
 30
0.0
  0
SPLINE
  5
10b
100
AcDbEntity
  8
trace
 62
7
100
AcDbSpline
 70
8
 71
3
 72
8
 73
4
 74
0
 40
0
 40
0
 40
0
 40
0
 40
1
 40
1
 40
1
 40
1
 10
71.631330
 20
81.000000
 30
0.0
 10
71.780569
 20
81.000000
 30
0.0
 10
77.071447
 20
84.386807
 30
0.0
 10
83.388840
 20
88.526238
 30
0.0
  0
SPLINE
  5
10c
100
AcDbEntity
  8
trace
 62
7
100
AcDbSpline
 70
8
 71
3
 72
8
 73
4
 74
0
 40
0
 40
0
 40
0
 40
0
 40
1
 40
1
 40
1
 40
1
 10
83.388840
 20
88.526238
 30
0.0
 10
103.769896
 20
101.880802
 30
0.0
 10
125.412760
 20
111.569808
 30
0.0
 10
147.000000
 20
117.003478
 30
0.0
  0
SPLINE
  5
10d
100
AcDbEntity
  8
trace
 62
7
100
AcDbSpline
 70
8
 71
3
 72
8
 73
4
 74
0
 40
0
 40
0
 40
0
 40
0
 40
1
 40
1
 40
1
 40
1
 10
147.000000
 20
117.003478
 30
0.0
 10
158.232712
 20
119.830836
 30
0.0
 10
180.111624
 20
122.997572
 30
0.0
 10
192.187496
 20
123.543882
 30
0.0
  0
LWPOLYLINE
  5
10e
100
AcDbEntity
  8
trace
 62
7
100
AcDbPolyline
 90
11
 70
1
 10
39.562500
 20
54.118712
 30
0.0
 10
28.500000
 20
53.862424
 30
0.0
 10
28.500000
 20
62.883688
 30
0.0
 10
28.500000
 20
71.904960
 30
0.0
 10
26.062500
 20
72.207450
 30
0.0
 10
23.625000
 20
72.509947
 30
0.0
 10
26.062500
 20
72.629970
 30
0.0
 10
28.500000
 20
72.750000
 30
0.0
 10
28.500000
 20
82.125000
 30
0.0
 10
28.500000
 20
91.500000
 30
0.0
 10
36.592426
 20
91.500000
 30
0.0
  0
SPLINE
  5
10f
100
AcDbEntity
  8
trace
 62
7
100
AcDbSpline
 70
8
 71
3
 72
8
 73
4
 74
0
 40
0
 40
0
 40
0
 40
0
 40
1
 40
1
 40
1
 40
1
 10
194.437496
 20
21.067520
 30
0.0
 10
190.415624
 20
21.104640
 30
0.0
 10
180.973616
 20
21.947856
 30
0.0
 10
173.455264
 20
22.941336
 30
0.0
  0
LWPOLYLINE
  5
110
100
AcDbEntity
  8
trace
 62
7
100
AcDbPolyline
 90
5
 70
1
 10
192.187496
 20
123.543882
 30
0.0
 10
201.750000
 20
123.976487
 30
0.0
 10
201.750000
 20
72.488242
 30
0.0
 10
201.750000
 20
21.000000
 30
0.0
 10
194.437496
 20
21.067520
 30
0.0
  0
LWPOLYLINE
  5
111
100
AcDbEntity
  8
trace
 62
7
100
AcDbPolyline
 90
2
 70
1
 10
173.455264
 20
22.941336
 30
0.0
 10
173.455264
 20
22.941328
 30
0.0
  0
SPLINE
  5
112
100
AcDbEntity
  8
trace
 62
7
100
AcDbSpline
 70
8
 71
3
 72
8
 73
4
 74
0
 40
0
 40
0
 40
0
 40
0
 40
1
 40
1
 40
1
 40
1
 10
190.312496
 20
122.025316
 30
0.0
 10
184.434376
 20
121.780566
 30
0.0
 10
173.988384
 20
120.740662
 30
0.0
 10
167.099184
 20
119.714418
 30
0.0
  0
SPLINE
  5
113
100
AcDbEntity
  8
trace
 62
7
100
AcDbSpline
 70
8
 71
3
 72
8
 73
4
 74
0
 40
0
 40
0
 40
0
 40
0
 40
1
 40
1
 40
1
 40
1
 10
167.099184
 20
119.714418
 30
0.0
 10
135.437488
 20
114.997964
 30
0.0
 10
110.254808
 20
105.054445
 30
0.0
 10
81.286656
 20
85.830883
 30
0.0
  0
SPLINE
  5
114
100
AcDbEntity
  8
trace
 62
7
100
AcDbSpline
 70
8
 71
3
 72
8
 73
4
 74
0
 40
0
 40
0
 40
0
 40
0
 40
1
 40
1
 40
1
 40
1
 10
81.286656
 20
85.830883
 30
0.0
 10
76.039620
 20
82.348898
 30
0.0
 10
70.960643
 20
79.500000
 30
0.0
 10
70.000034
 20
79.500000
 30
0.0
  0
SPLINE
  5
115
100
AcDbEntity
  8
trace
 62
7
100
AcDbSpline
 70
8
 71
3
 72
8
 73
4
 74
0
 40
0
 40
0
 40
0
 40
0
 40
1
 40
1
 40
1
 40
1
 10
70.000034
 20
79.500000
 30
0.0
 10
69.039426
 20
79.500000
 30
0.0
 10
66.611125
 20
80.679909
 30
0.0
 10
64.603812
 20
82.122020
 30
0.0
  0
SPLINE
  5
116
100
AcDbEntity
  8
trace
 62
7
100
AcDbSpline
 70
8
 71
3
 72
8
 73
4
 74
0
 40
0
 40
0
 40
0
 40
0
 40
1
 40
1
 40
1
 40
1
 10
64.603812
 20
82.122020
 30
0.0
 10
56.991423
 20
87.590977
 30
0.0
 10
46.816346
 20
90.717064
 30
0.0
 10
36.562500
 20
90.737146
 30
0.0
  0
LWPOLYLINE
  5
117
100
AcDbEntity
  8
trace
 62
7
100
AcDbPolyline
 90
9
 70
1
 10
201.000000
 20
47.250000
 30
0.0
 10
201.000000
 20
72.000000
 30
0.0
 10
197.062496
 20
72.138735
 30
0.0
 10
193.125000
 20
72.277470
 30
0.0
 10
197.062496
 20
72.552930
 30
0.0
 10
201.000000
 20
72.828390
 30
0.0
 10
201.000000
 20
97.649354
 30
0.0
 10
201.000000
 20
122.470317
 30
0.0
 10
190.312496
 20
122.025316
 30
0.0
  0
SPLINE
  5
118
100
AcDbEntity
  8
trace
 62
7
100
AcDbSpline
 70
8
 71
3
 72
8
 73
4
 74
0
 40
0
 40
0
 40
0
 40
0
 40
1
 40
1
 40
1
 40
1
 10
39.562500
 20
54.913032
 30
0.0
 10
50.435460
 20
55.269688
 30
0.0
 10
53.657108
 20
56.222912
 30
0.0
 10
63.018746
 20
61.853240
 30
0.0
  0
SPLINE
  5
119
100
AcDbEntity
  8
trace
 62
7
100
AcDbSpline
 70
8
 71
3
 72
8
 73
4
 74
0
 40
0
 40
0
 40
0
 40
0
 40
1
 40
1
 40
1
 40
1
 10
63.018746
 20
61.853240
 30
0.0
 10
66.102186
 20
63.707704
 30
0.0
 10
69.396514
 20
65.230616
 30
0.0
 10
70.339477
 20
65.237496
 30
0.0
  0
SPLINE
  5
11a
100
AcDbEntity
  8
trace
 62
7
100
AcDbSpline
 70
8
 71
3
 72
8
 73
4
 74
0
 40
0
 40
0
 40
0
 40
0
 40
1
 40
1
 40
1
 40
1
 10
70.339477
 20
65.237496
 30
0.0
 10
71.282439
 20
65.243896
 30
0.0
 10
76.851187
 20
62.093048
 30
0.0
 10
82.714480
 20
58.234560
 30
0.0
  0
SPLINE
  5
11b
100
AcDbEntity
  8
trace
 62
7
100
AcDbSpline
 70
8
 71
3
 72
8
 73
4
 74
0
 40
0
 40
0
 40
0
 40
0
 40
1
 40
1
 40
1
 40
1
 10
82.714480
 20
58.234560
 30
0.0
 10
107.414664
 20
41.979936
 30
0.0
 10
126.506216
 20
33.645200
 30
0.0
 10
152.250000
 20
27.877656
 30
0.0
  0
SPLINE
  5
11c
100
AcDbEntity
  8
trace
 62
7
100
AcDbSpline
 70
8
 71
3
 72
8
 73
4
 74
0
 40
0
 40
0
 40
0
 40
0
 40
1
 40
1
 40
1
 40
1
 10
152.250000
 20
27.877656
 30
0.0
 10
168.350128
 20
24.270648
 30
0.0
 10
180.065520
 20
22.735392
 30
0.0
 10
192.562496
 20
22.594872
 30
0.0
  0
LWPOLYLINE
  5
11d
100
AcDbEntity
  8
trace
 62
7
100
AcDbPolyline
 90
11
 70
1
 10
36.562500
 20
90.737146
 30
0.0
 10
30.000000
 20
90.750000
 30
0.0
 10
30.000000
 20
81.750000
 30
0.0
 10
30.000000
 20
72.750000
 30
0.0
 10
33.187500
 20
72.618967
 30
0.0
 10
36.375000
 20
72.487942
 30
0.0
 10
33.187500
 20
72.200842
 30
0.0
 10
30.000000
 20
71.913750
 30
0.0
 10
30.000000
 20
63.256560
 30
0.0
 10
30.000000
 20
54.599360
 30
0.0
 10
39.562500
 20
54.913032
 30
0.0
  0
SPLINE
  5
11e
100
AcDbEntity
  8
trace
 62
7
100
AcDbSpline
 70
8
 71
3
 72
8
 73
4
 74
0
 40
0
 40
0
 40
0
 40
0
 40
1
 40
1
 40
1
 40
1
 10
43.687500
 20
72.516998
 30
0.0
 10
44.409375
 20
72.705638
 30
0.0
 10
45.590625
 20
72.705638
 30
0.0
 10
46.312500
 20
72.516998
 30
0.0
  0
SPLINE
  5
11f
100
AcDbEntity
  8
trace
 62
7
100
AcDbSpline
 70
8
 71
3
 72
8
 73
4
 74
0
 40
0
 40
0
 40
0
 40
0
 40
1
 40
1
 40
1
 40
1
 10
46.312500
 20
72.516998
 30
0.0
 10
47.034375
 20
72.328350
 30
0.0
 10
46.443750
 20
72.174000
 30
0.0
 10
45.000000
 20
72.174000
 30
0.0
  0
SPLINE
  5
120
100
AcDbEntity
  8
trace
 62
7
100
AcDbSpline
 70
8
 71
3
 72
8
 73
4
 74
0
 40
0
 40
0
 40
0
 40
0
 40
1
 40
1
 40
1
 40
1
 10
45.000000
 20
72.174000
 30
0.0
 10
43.556250
 20
72.174000
 30
0.0
 10
42.965625
 20
72.328350
 30
0.0
 10
43.687500
 20
72.516998
 30
0.0
  0
LWPOLYLINE
  5
121
100
AcDbEntity
  8
trace
 62
7
100
AcDbPolyline
 90
4
 70
1
 10
192.562496
 20
22.594872
 30
0.0
 10
201.000000
 20
22.500000
 30
0.0
 10
201.000000
 20
47.250000
 30
0.0
 10
201.000000
 20
47.250000
 30
0.0
  0
SPLINE
  5
122
100
AcDbEntity
  8
trace
 62
7
100
AcDbSpline
 70
8
 71
3
 72
8
 73
4
 74
0
 40
0
 40
0
 40
0
 40
0
 40
1
 40
1
 40
1
 40
1
 10
62.821244
 20
72.530422
 30
0.0
 10
63.754179
 20
72.709814
 30
0.0
 10
65.104179
 20
72.703004
 30
0.0
 10
65.821244
 20
72.515270
 30
0.0
  0
SPLINE
  5
123
100
AcDbEntity
  8
trace
 62
7
100
AcDbSpline
 70
8
 71
3
 72
8
 73
4
 74
0
 40
0
 40
0
 40
0
 40
0
 40
1
 40
1
 40
1
 40
1
 10
65.821244
 20
72.515270
 30
0.0
 10
66.538310
 20
72.327552
 30
0.0
 10
65.774996
 20
72.180770
 30
0.0
 10
64.125000
 20
72.189094
 30
0.0
  0
SPLINE
  5
124
100
AcDbEntity
  8
trace
 62
7
100
AcDbSpline
 70
8
 71
3
 72
8
 73
4
 74
0
 40
0
 40
0
 40
0
 40
0
 40
1
 40
1
 40
1
 40
1
 10
64.125000
 20
72.189094
 30
0.0
 10
62.475000
 20
72.197422
 30
0.0
 10
61.888310
 20
72.351012
 30
0.0
 10
62.821244
 20
72.530404
 30
0.0
  0
LWPOLYLINE
  5
125
100
AcDbEntity
  8
trace
 62
7
100
AcDbPolyline
 90
2
 70
1
 10
43.687500
 20
72.516998
 30
0.0
 10
43.687500
 20
72.516998
 30
0.0
  0
SPLINE
  5
126
100
AcDbEntity
  8
trace
 62
7
100
AcDbSpline
 70
8
 71
3
 72
8
 73
4
 74
0
 40
0
 40
0
 40
0
 40
0
 40
1
 40
1
 40
1
 40
1
 10
76.359375
 20
72.512270
 30
0.0
 10
76.900778
 20
72.728922
 30
0.0
 10
77.547653
 20
72.702282
 30
0.0
 10
77.796878
 20
72.453094
 30
0.0
  0
SPLINE
  5
127
100
AcDbEntity
  8
trace
 62
7
100
AcDbSpline
 70
8
 71
3
 72
8
 73
4
 74
0
 40
0
 40
0
 40
0
 40
0
 40
1
 40
1
 40
1
 40
1
 10
77.796878
 20
72.453094
 30
0.0
 10
78.046095
 20
72.203869
 30
0.0
 10
77.603122
 20
72.026614
 30
0.0
 10
76.812502
 20
72.059178
 30
0.0
  0
SPLINE
  5
128
100
AcDbEntity
  8
trace
 62
7
100
AcDbSpline
 70
8
 71
3
 72
8
 73
4
 74
0
 40
0
 40
0
 40
0
 40
0
 40
1
 40
1
 40
1
 40
1
 10
76.812502
 20
72.059178
 30
0.0
 10
75.938790
 20
72.095178
 30
0.0
 10
75.761078
 20
72.272883
 30
0.0
 10
76.359375
 20
72.512298
 30
0.0
  0
LWPOLYLINE
  5
129
100
AcDbEntity
  8
trace
 62
7
100
AcDbPolyline
 90
2
 70
1
 10
62.821244
 20
72.530404
 30
0.0
 10
62.821244
 20
72.530422
 30
0.0
  0
SPLINE
  5
12a
100
AcDbEntity
  8
trace
 62
7
100
AcDbSpline
 70
8
 71
3
 72
8
 73
4
 74
0
 40
0
 40
0
 40
0
 40
0
 40
1
 40
1
 40
1
 40
1
 10
83.460128
 20
72.552174
 30
0.0
 10
85.431952
 20
72.707183
 30
0.0
 10
88.469456
 20
72.705308
 30
0.0
 10
90.210128
 20
72.547694
 30
0.0
  0
SPLINE
  5
12b
100
AcDbEntity
  8
trace
 62
7
100
AcDbSpline
 70
8
 71
3
 72
8
 73
4
 74
0
 40
0
 40
0
 40
0
 40
0
 40
1
 40
1
 40
1
 40
1
 10
90.210128
 20
72.547694
 30
0.0
 10
91.950808
 20
72.390403
 30
0.0
 10
90.337504
 20
72.263578
 30
0.0
 10
86.625000
 20
72.265866
 30
0.0
  0
SPLINE
  5
12c
100
AcDbEntity
  8
trace
 62
7
100
AcDbSpline
 70
8
 71
3
 72
8
 73
4
 74
0
 40
0
 40
0
 40
0
 40
0
 40
1
 40
1
 40
1
 40
1
 10
86.625000
 20
72.265866
 30
0.0
 10
82.912504
 20
72.268106
 30
0.0
 10
81.488312
 20
72.396846
 30
0.0
 10
83.460128
 20
72.551848
 30
0.0
  0
LWPOLYLINE
  5
12d
100
AcDbEntity
  8
trace
 62
7
100
AcDbPolyline
 90
2
 70
1
 10
76.359375
 20
72.512298
 30
0.0
 10
76.359375
 20
72.512270
 30
0.0
  0
SPLINE
  5
12e
100
AcDbEntity
  8
trace
 62
7
100
AcDbSpline
 70
8
 71
3
 72
8
 73
4
 74
0
 40
0
 40
0
 40
0
 40
0
 40
1
 40
1
 40
1
 40
1
 10
102.210128
 20
72.552174
 30
0.0
 10
104.181952
 20
72.707183
 30
0.0
 10
107.219456
 20
72.705308
 30
0.0
 10
108.960128
 20
72.547694
 30
0.0
  0
SPLINE
  5
12f
100
AcDbEntity
  8
trace
 62
7
100
AcDbSpline
 70
8
 71
3
 72
8
 73
4
 74
0
 40
0
 40
0
 40
0
 40
0
 40
1
 40
1
 40
1
 40
1
 10
108.960128
 20
72.547694
 30
0.0
 10
110.700808
 20
72.390403
 30
0.0
 10
109.087496
 20
72.263578
 30
0.0
 10
105.375000
 20
72.265866
 30
0.0
  0
SPLINE
  5
130
100
AcDbEntity
  8
trace
 62
7
100
AcDbSpline
 70
8
 71
3
 72
8
 73
4
 74
0
 40
0
 40
0
 40
0
 40
0
 40
1
 40
1
 40
1
 40
1
 10
105.375000
 20
72.265866
 30
0.0
 10
101.662504
 20
72.268106
 30
0.0
 10
100.238312
 20
72.396846
 30
0.0
 10
102.210128
 20
72.551848
 30
0.0
  0
LWPOLYLINE
  5
131
100
AcDbEntity
  8
trace
 62
7
100
AcDbPolyline
 90
2
 70
1
 10
83.460128
 20
72.551848
 30
0.0
 10
83.460128
 20
72.552174
 30
0.0
  0
SPLINE
  5
132
100
AcDbEntity
  8
trace
 62
7
100
AcDbSpline
 70
8
 71
3
 72
8
 73
4
 74
0
 40
0
 40
0
 40
0
 40
0
 40
1
 40
1
 40
1
 40
1
 10
120.960128
 20
72.552174
 30
0.0
 10
122.931952
 20
72.707183
 30
0.0
 10
125.969456
 20
72.705308
 30
0.0
 10
127.710128
 20
72.547694
 30
0.0
  0
SPLINE
  5
133
100
AcDbEntity
  8
trace
 62
7
100
AcDbSpline
 70
8
 71
3
 72
8
 73
4
 74
0
 40
0
 40
0
 40
0
 40
0
 40
1
 40
1
 40
1
 40
1
 10
127.710128
 20
72.547694
 30
0.0
 10
129.450808
 20
72.390403
 30
0.0
 10
127.837496
 20
72.263578
 30
0.0
 10
124.125000
 20
72.265866
 30
0.0
  0
SPLINE
  5
134
100
AcDbEntity
  8
trace
 62
7
100
AcDbSpline
 70
8
 71
3
 72
8
 73
4
 74
0
 40
0
 40
0
 40
0
 40
0
 40
1
 40
1
 40
1
 40
1
 10
124.125000
 20
72.265866
 30
0.0
 10
120.412496
 20
72.268106
 30
0.0
 10
118.988312
 20
72.396846
 30
0.0
 10
120.960128
 20
72.551848
 30
0.0
  0
LWPOLYLINE
  5
135
100
AcDbEntity
  8
trace
 62
7
100
AcDbPolyline
 90
2
 70
1
 10
102.210128
 20
72.551848
 30
0.0
 10
102.210128
 20
72.552174
 30
0.0
  0
SPLINE
  5
136
100
AcDbEntity
  8
trace
 62
7
100
AcDbSpline
 70
8
 71
3
 72
8
 73
4
 74
0
 40
0
 40
0
 40
0
 40
0
 40
1
 40
1
 40
1
 40
1
 10
133.359376
 20
72.512270
 30
0.0
 10
133.900776
 20
72.728922
 30
0.0
 10
134.547656
 20
72.702282
 30
0.0
 10
134.796880
 20
72.453094
 30
0.0
  0
SPLINE
  5
137
100
AcDbEntity
  8
trace
 62
7
100
AcDbSpline
 70
8
 71
3
 72
8
 73
4
 74
0
 40
0
 40
0
 40
0
 40
0
 40
1
 40
1
 40
1
 40
1
 10
134.796880
 20
72.453094
 30
0.0
 10
135.046096
 20
72.203869
 30
0.0
 10
134.603120
 20
72.026614
 30
0.0
 10
133.812504
 20
72.059178
 30
0.0
  0
SPLINE
  5
138
100
AcDbEntity
  8
trace
 62
7
100
AcDbSpline
 70
8
 71
3
 72
8
 73
4
 74
0
 40
0
 40
0
 40
0
 40
0
 40
1
 40
1
 40
1
 40
1
 10
133.812504
 20
72.059178
 30
0.0
 10
132.938792
 20
72.095178
 30
0.0
 10
132.761080
 20
72.272883
 30
0.0
 10
133.359376
 20
72.512298
 30
0.0
  0
LWPOLYLINE
  5
139
100
AcDbEntity
  8
trace
 62
7
100
AcDbPolyline
 90
2
 70
1
 10
120.960128
 20
72.551848
 30
0.0
 10
120.960128
 20
72.552174
 30
0.0
  0
SPLINE
  5
13a
100
AcDbEntity
  8
trace
 62
7
100
AcDbSpline
 70
8
 71
3
 72
8
 73
4
 74
0
 40
0
 40
0
 40
0
 40
0
 40
1
 40
1
 40
1
 40
1
 10
139.710128
 20
72.552174
 30
0.0
 10
141.681952
 20
72.707183
 30
0.0
 10
144.719456
 20
72.705308
 30
0.0
 10
146.460128
 20
72.547694
 30
0.0
  0
SPLINE
  5
13b
100
AcDbEntity
  8
trace
 62
7
100
AcDbSpline
 70
8
 71
3
 72
8
 73
4
 74
0
 40
0
 40
0
 40
0
 40
0
 40
1
 40
1
 40
1
 40
1
 10
146.460128
 20
72.547694
 30
0.0
 10
148.200808
 20
72.390403
 30
0.0
 10
146.587496
 20
72.263578
 30
0.0
 10
142.875000
 20
72.265866
 30
0.0
  0
SPLINE
  5
13c
100
AcDbEntity
  8
trace
 62
7
100
AcDbSpline
 70
8
 71
3
 72
8
 73
4
 74
0
 40
0
 40
0
 40
0
 40
0
 40
1
 40
1
 40
1
 40
1
 10
142.875000
 20
72.265866
 30
0.0
 10
139.162496
 20
72.268106
 30
0.0
 10
137.738312
 20
72.396846
 30
0.0
 10
139.710128
 20
72.551848
 30
0.0
  0
LWPOLYLINE
  5
13d
100
AcDbEntity
  8
trace
 62
7
100
AcDbPolyline
 90
2
 70
1
 10
133.359376
 20
72.512298
 30
0.0
 10
133.359376
 20
72.512270
 30
0.0
  0
SPLINE
  5
13e
100
AcDbEntity
  8
trace
 62
7
100
AcDbSpline
 70
8
 71
3
 72
8
 73
4
 74
0
 40
0
 40
0
 40
0
 40
0
 40
1
 40
1
 40
1
 40
1
 10
152.062496
 20
72.496670
 30
0.0
 10
152.578128
 20
72.704727
 30
0.0
 10
153.421872
 20
72.704727
 30
0.0
 10
153.937496
 20
72.496670
 30
0.0
  0
SPLINE
  5
13f
100
AcDbEntity
  8
trace
 62
7
100
AcDbSpline
 70
8
 71
3
 72
8
 73
4
 74
0
 40
0
 40
0
 40
0
 40
0
 40
1
 40
1
 40
1
 40
1
 10
153.937496
 20
72.496670
 30
0.0
 10
154.453128
 20
72.288612
 30
0.0
 10
154.031248
 20
72.118377
 30
0.0
 10
153.000000
 20
72.118377
 30
0.0
  0
SPLINE
  5
140
100
AcDbEntity
  8
trace
 62
7
100
AcDbSpline
 70
8
 71
3
 72
8
 73
4
 74
0
 40
0
 40
0
 40
0
 40
0
 40
1
 40
1
 40
1
 40
1
 10
153.000000
 20
72.118377
 30
0.0
 10
151.968752
 20
72.118377
 30
0.0
 10
151.546872
 20
72.288612
 30
0.0
 10
152.062496
 20
72.496670
 30
0.0
  0
LWPOLYLINE
  5
141
100
AcDbEntity
  8
trace
 62
7
100
AcDbPolyline
 90
2
 70
1
 10
139.710128
 20
72.551848
 30
0.0
 10
139.710128
 20
72.552174
 30
0.0
  0
SPLINE
  5
142
100
AcDbEntity
  8
trace
 62
7
100
AcDbSpline
 70
8
 71
3
 72
8
 73
4
 74
0
 40
0
 40
0
 40
0
 40
0
 40
1
 40
1
 40
1
 40
1
 10
158.812496
 20
72.549094
 30
0.0
 10
160.565624
 20
72.706991
 30
0.0
 10
163.434376
 20
72.706991
 30
0.0
 10
165.187496
 20
72.549094
 30
0.0
  0
SPLINE
  5
143
100
AcDbEntity
  8
trace
 62
7
100
AcDbSpline
 70
8
 71
3
 72
8
 73
4
 74
0
 40
0
 40
0
 40
0
 40
0
 40
1
 40
1
 40
1
 40
1
 10
165.187496
 20
72.549094
 30
0.0
 10
166.940624
 20
72.391189
 30
0.0
 10
165.506248
 20
72.261994
 30
0.0
 10
162.000000
 20
72.261994
 30
0.0
  0
SPLINE
  5
144
100
AcDbEntity
  8
trace
 62
7
100
AcDbSpline
 70
8
 71
3
 72
8
 73
4
 74
0
 40
0
 40
0
 40
0
 40
0
 40
1
 40
1
 40
1
 40
1
 10
162.000000
 20
72.261994
 30
0.0
 10
158.493752
 20
72.261994
 30
0.0
 10
157.059376
 20
72.391189
 30
0.0
 10
158.812496
 20
72.549094
 30
0.0
  0
LWPOLYLINE
  5
145
100
AcDbEntity
  8
trace
 62
7
100
AcDbPolyline
 90
2
 70
1
 10
152.062496
 20
72.496670
 30
0.0
 10
152.062496
 20
72.496670
 30
0.0
  0
SPLINE
  5
146
100
AcDbEntity
  8
trace
 62
7
100
AcDbSpline
 70
8
 71
3
 72
8
 73
4
 74
0
 40
0
 40
0
 40
0
 40
0
 40
1
 40
1
 40
1
 40
1
 10
170.859376
 20
72.512270
 30
0.0
 10
171.400776
 20
72.728922
 30
0.0
 10
172.047656
 20
72.702282
 30
0.0
 10
172.296880
 20
72.453094
 30
0.0
  0
SPLINE
  5
147
100
AcDbEntity
  8
trace
 62
7
100
AcDbSpline
 70
8
 71
3
 72
8
 73
4
 74
0
 40
0
 40
0
 40
0
 40
0
 40
1
 40
1
 40
1
 40
1
 10
172.296880
 20
72.453094
 30
0.0
 10
172.546096
 20
72.203869
 30
0.0
 10
172.103120
 20
72.026614
 30
0.0
 10
171.312504
 20
72.059178
 30
0.0
  0
SPLINE
  5
148
100
AcDbEntity
  8
trace
 62
7
100
AcDbSpline
 70
8
 71
3
 72
8
 73
4
 74
0
 40
0
 40
0
 40
0
 40
0
 40
1
 40
1
 40
1
 40
1
 10
171.312504
 20
72.059178
 30
0.0
 10
170.438792
 20
72.095178
 30
0.0
 10
170.261080
 20
72.272883
 30
0.0
 10
170.859376
 20
72.512298
 30
0.0
  0
LWPOLYLINE
  5
149
100
AcDbEntity
  8
trace
 62
7
100
AcDbPolyline
 90
2
 70
1
 10
158.812496
 20
72.549094
 30
0.0
 10
158.812496
 20
72.549094
 30
0.0
  0
SPLINE
  5
14a
100
AcDbEntity
  8
trace
 62
7
100
AcDbSpline
 70
8
 71
3
 72
8
 73
4
 74
0
 40
0
 40
0
 40
0
 40
0
 40
1
 40
1
 40
1
 40
1
 10
177.562496
 20
72.549094
 30
0.0
 10
179.315624
 20
72.706991
 30
0.0
 10
182.184376
 20
72.706991
 30
0.0
 10
183.937496
 20
72.549094
 30
0.0
  0
SPLINE
  5
14b
100
AcDbEntity
  8
trace
 62
7
100
AcDbSpline
 70
8
 71
3
 72
8
 73
4
 74
0
 40
0
 40
0
 40
0
 40
0
 40
1
 40
1
 40
1
 40
1
 10
183.937496
 20
72.549094
 30
0.0
 10
185.690624
 20
72.391189
 30
0.0
 10
184.256248
 20
72.261994
 30
0.0
 10
180.750000
 20
72.261994
 30
0.0
  0
SPLINE
  5
14c
100
AcDbEntity
  8
trace
 62
7
100
AcDbSpline
 70
8
 71
3
 72
8
 73
4
 74
0
 40
0
 40
0
 40
0
 40
0
 40
1
 40
1
 40
1
 40
1
 10
180.750000
 20
72.261994
 30
0.0
 10
177.243752
 20
72.261994
 30
0.0
 10
175.809376
 20
72.391189
 30
0.0
 10
177.562496
 20
72.549094
 30
0.0
  0
LWPOLYLINE
  5
14d
100
AcDbEntity
  8
trace
 62
7
100
AcDbPolyline
 90
2
 70
1
 10
170.859376
 20
72.512298
 30
0.0
 10
170.859376
 20
72.512270
 30
0.0
  0
SPLINE
  5
14e
100
AcDbEntity
  8
trace
 62
7
100
AcDbSpline
 70
8
 71
3
 72
8
 73
4
 74
0
 40
0
 40
0
 40
0
 40
0
 40
1
 40
1
 40
1
 40
1
 10
189.609376
 20
72.512270
 30
0.0
 10
190.150776
 20
72.728922
 30
0.0
 10
190.797656
 20
72.702282
 30
0.0
 10
191.046880
 20
72.453094
 30
0.0
  0
SPLINE
  5
14f
100
AcDbEntity
  8
trace
 62
7
100
AcDbSpline
 70
8
 71
3
 72
8
 73
4
 74
0
 40
0
 40
0
 40
0
 40
0
 40
1
 40
1
 40
1
 40
1
 10
191.046880
 20
72.453094
 30
0.0
 10
191.296096
 20
72.203869
 30
0.0
 10
190.853120
 20
72.026614
 30
0.0
 10
190.062504
 20
72.059178
 30
0.0
  0
SPLINE
  5
150
100
AcDbEntity
  8
trace
 62
7
100
AcDbSpline
 70
8
 71
3
 72
8
 73
4
 74
0
 40
0
 40
0
 40
0
 40
0
 40
1
 40
1
 40
1
 40
1
 10
190.062504
 20
72.059178
 30
0.0
 10
189.188792
 20
72.095178
 30
0.0
 10
189.011080
 20
72.272883
 30
0.0
 10
189.609376
 20
72.512298
 30
0.0
  0
LWPOLYLINE
  5
151
100
AcDbEntity
  8
trace
 62
7
100
AcDbPolyline
 90
2
 70
1
 10
177.562496
 20
72.549094
 30
0.0
 10
177.562496
 20
72.549094
 30
0.0
  0
LWPOLYLINE
  5
152
100
AcDbEntity
  8
trace
 62
7
100
AcDbPolyline
 90
2
 70
1
 10
189.609376
 20
72.512298
 30
0.0
 10
189.609376
 20
72.512270
 30
0.0
  0
ENDSEC
  0
SECTION
  2
OBJECTS
  0
DICTIONARY
  5
C
330
0
100
AcDbDictionary
  3
ACAD_GROUP
350
D
  3
ACAD_MLINESTYLE
350
17
  0
DICTIONARY
  5
D
330
C
100
AcDbDictionary
  0
DICTIONARY
  5
1A
330
C
100
AcDbDictionary
  0
DICTIONARY
  5
17
330
C
100
AcDbDictionary
  3
STANDARD
350
18
  0
DICTIONARY
  5
19
330
C
100
AcDbDictionary
  0
ENDSEC
  0
EOF
